<mxfile host="app.diagrams.net" modified="2023-11-11T20:25:30.409Z" agent="Mozilla/5.0 (Windows NT 10.0; Win64; x64; rv:109.0) Gecko/20100101 Firefox/119.0" etag="iyCYEkfJcNzDmmueDSDm" version="22.1.0" type="github">
  <diagram name="Page-1" id="dHOOKNwG--G610tFs2vI">
    <mxGraphModel dx="2085" dy="1756" grid="1" gridSize="10" guides="1" tooltips="1" connect="1" arrows="1" fold="1" page="1" pageScale="1" pageWidth="850" pageHeight="1100" math="0" shadow="0">
      <root>
        <mxCell id="0" />
        <mxCell id="1" parent="0" />
        <mxCell id="ky4P-q7fUcgdo2Km-gyk-6" value="" style="edgeStyle=orthogonalEdgeStyle;rounded=0;orthogonalLoop=1;jettySize=auto;html=1;" edge="1" parent="1" source="ky4P-q7fUcgdo2Km-gyk-1" target="ky4P-q7fUcgdo2Km-gyk-2">
          <mxGeometry relative="1" as="geometry" />
        </mxCell>
        <mxCell id="ky4P-q7fUcgdo2Km-gyk-1" value="Display Board " style="rounded=0;whiteSpace=wrap;html=1;" vertex="1" parent="1">
          <mxGeometry x="180" y="20" width="120" height="60" as="geometry" />
        </mxCell>
        <mxCell id="ky4P-q7fUcgdo2Km-gyk-9" style="edgeStyle=orthogonalEdgeStyle;rounded=0;orthogonalLoop=1;jettySize=auto;html=1;exitX=0.5;exitY=1;exitDx=0;exitDy=0;entryX=0.5;entryY=0;entryDx=0;entryDy=0;" edge="1" parent="1" source="ky4P-q7fUcgdo2Km-gyk-2" target="ky4P-q7fUcgdo2Km-gyk-3">
          <mxGeometry relative="1" as="geometry" />
        </mxCell>
        <mxCell id="ky4P-q7fUcgdo2Km-gyk-2" value="Display Images of Pieces" style="rounded=0;whiteSpace=wrap;html=1;" vertex="1" parent="1">
          <mxGeometry x="180" y="130" width="120" height="60" as="geometry" />
        </mxCell>
        <mxCell id="ky4P-q7fUcgdo2Km-gyk-10" value="" style="edgeStyle=orthogonalEdgeStyle;rounded=0;orthogonalLoop=1;jettySize=auto;html=1;" edge="1" parent="1" source="ky4P-q7fUcgdo2Km-gyk-3" target="ky4P-q7fUcgdo2Km-gyk-5">
          <mxGeometry relative="1" as="geometry" />
        </mxCell>
        <mxCell id="ky4P-q7fUcgdo2Km-gyk-27" value="" style="edgeStyle=orthogonalEdgeStyle;rounded=0;orthogonalLoop=1;jettySize=auto;html=1;" edge="1" parent="1" source="ky4P-q7fUcgdo2Km-gyk-3" target="ky4P-q7fUcgdo2Km-gyk-11">
          <mxGeometry relative="1" as="geometry" />
        </mxCell>
        <mxCell id="ky4P-q7fUcgdo2Km-gyk-3" value="User selects a piece" style="rhombus;whiteSpace=wrap;html=1;" vertex="1" parent="1">
          <mxGeometry x="190" y="210" width="100" height="100" as="geometry" />
        </mxCell>
        <mxCell id="ky4P-q7fUcgdo2Km-gyk-30" value="" style="edgeStyle=orthogonalEdgeStyle;rounded=0;orthogonalLoop=1;jettySize=auto;html=1;" edge="1" parent="1" source="ky4P-q7fUcgdo2Km-gyk-4" target="ky4P-q7fUcgdo2Km-gyk-29">
          <mxGeometry relative="1" as="geometry">
            <Array as="points">
              <mxPoint x="-30" y="350" />
              <mxPoint x="-30" y="350" />
            </Array>
          </mxGeometry>
        </mxCell>
        <mxCell id="ky4P-q7fUcgdo2Km-gyk-31" style="edgeStyle=orthogonalEdgeStyle;rounded=0;orthogonalLoop=1;jettySize=auto;html=1;exitX=0;exitY=1;exitDx=0;exitDy=0;entryX=1;entryY=0.5;entryDx=0;entryDy=0;" edge="1" parent="1" source="ky4P-q7fUcgdo2Km-gyk-4" target="ky4P-q7fUcgdo2Km-gyk-32">
          <mxGeometry relative="1" as="geometry">
            <mxPoint x="-50" y="340" as="targetPoint" />
            <Array as="points">
              <mxPoint x="70" y="380" />
              <mxPoint x="70" y="460" />
            </Array>
          </mxGeometry>
        </mxCell>
        <mxCell id="ky4P-q7fUcgdo2Km-gyk-4" value="King is moved" style="shape=parallelogram;perimeter=parallelogramPerimeter;whiteSpace=wrap;html=1;fixedSize=1;" vertex="1" parent="1">
          <mxGeometry x="15" y="320" width="120" height="60" as="geometry" />
        </mxCell>
        <mxCell id="ky4P-q7fUcgdo2Km-gyk-5" value="Highlight all valid moves for that piece " style="shape=process;whiteSpace=wrap;html=1;backgroundOutline=1;" vertex="1" parent="1">
          <mxGeometry x="330" y="230" width="120" height="60" as="geometry" />
        </mxCell>
        <mxCell id="ky4P-q7fUcgdo2Km-gyk-45" value="" style="edgeStyle=orthogonalEdgeStyle;rounded=0;orthogonalLoop=1;jettySize=auto;html=1;" edge="1" parent="1" source="ky4P-q7fUcgdo2Km-gyk-11" target="ky4P-q7fUcgdo2Km-gyk-44">
          <mxGeometry relative="1" as="geometry" />
        </mxCell>
        <mxCell id="ky4P-q7fUcgdo2Km-gyk-67" value="" style="edgeStyle=orthogonalEdgeStyle;rounded=0;orthogonalLoop=1;jettySize=auto;html=1;" edge="1" parent="1" source="ky4P-q7fUcgdo2Km-gyk-11" target="ky4P-q7fUcgdo2Km-gyk-4">
          <mxGeometry relative="1" as="geometry" />
        </mxCell>
        <mxCell id="ky4P-q7fUcgdo2Km-gyk-69" value="" style="edgeStyle=orthogonalEdgeStyle;rounded=0;orthogonalLoop=1;jettySize=auto;html=1;" edge="1" parent="1" source="ky4P-q7fUcgdo2Km-gyk-11" target="ky4P-q7fUcgdo2Km-gyk-68">
          <mxGeometry relative="1" as="geometry" />
        </mxCell>
        <mxCell id="ky4P-q7fUcgdo2Km-gyk-11" value="Move is Made" style="rounded=0;whiteSpace=wrap;html=1;" vertex="1" parent="1">
          <mxGeometry x="180" y="340" width="120" height="60" as="geometry" />
        </mxCell>
        <mxCell id="ky4P-q7fUcgdo2Km-gyk-20" value="" style="edgeStyle=orthogonalEdgeStyle;rounded=0;orthogonalLoop=1;jettySize=auto;html=1;" edge="1" parent="1" source="ky4P-q7fUcgdo2Km-gyk-12" target="ky4P-q7fUcgdo2Km-gyk-16">
          <mxGeometry relative="1" as="geometry" />
        </mxCell>
        <mxCell id="ky4P-q7fUcgdo2Km-gyk-25" style="edgeStyle=orthogonalEdgeStyle;rounded=0;orthogonalLoop=1;jettySize=auto;html=1;exitX=0.5;exitY=1;exitDx=0;exitDy=0;" edge="1" parent="1" source="ky4P-q7fUcgdo2Km-gyk-12">
          <mxGeometry relative="1" as="geometry">
            <mxPoint x="660.2941176470588" y="110" as="targetPoint" />
          </mxGeometry>
        </mxCell>
        <mxCell id="ky4P-q7fUcgdo2Km-gyk-53" value="" style="edgeStyle=orthogonalEdgeStyle;rounded=0;orthogonalLoop=1;jettySize=auto;html=1;" edge="1" parent="1" source="ky4P-q7fUcgdo2Km-gyk-12" target="ky4P-q7fUcgdo2Km-gyk-52">
          <mxGeometry relative="1" as="geometry" />
        </mxCell>
        <mxCell id="ky4P-q7fUcgdo2Km-gyk-12" value="Get all possible moves for each piece " style="shape=process;whiteSpace=wrap;html=1;backgroundOutline=1;" vertex="1" parent="1">
          <mxGeometry x="600" y="20" width="120" height="60" as="geometry" />
        </mxCell>
        <mxCell id="ky4P-q7fUcgdo2Km-gyk-21" style="edgeStyle=orthogonalEdgeStyle;rounded=0;orthogonalLoop=1;jettySize=auto;html=1;exitX=0.5;exitY=1;exitDx=0;exitDy=0;entryX=0.5;entryY=0;entryDx=0;entryDy=0;" edge="1" parent="1" source="ky4P-q7fUcgdo2Km-gyk-13" target="ky4P-q7fUcgdo2Km-gyk-16">
          <mxGeometry relative="1" as="geometry" />
        </mxCell>
        <mxCell id="ky4P-q7fUcgdo2Km-gyk-13" value="Make a Move" style="rounded=0;whiteSpace=wrap;html=1;" vertex="1" parent="1">
          <mxGeometry x="600" y="110" width="120" height="60" as="geometry" />
        </mxCell>
        <mxCell id="ky4P-q7fUcgdo2Km-gyk-23" value="" style="edgeStyle=orthogonalEdgeStyle;rounded=0;orthogonalLoop=1;jettySize=auto;html=1;" edge="1" parent="1" source="ky4P-q7fUcgdo2Km-gyk-15" target="ky4P-q7fUcgdo2Km-gyk-18">
          <mxGeometry relative="1" as="geometry" />
        </mxCell>
        <mxCell id="ky4P-q7fUcgdo2Km-gyk-15" value="Generate all of your opponents moves " style="rounded=0;whiteSpace=wrap;html=1;" vertex="1" parent="1">
          <mxGeometry x="600" y="280" width="120" height="60" as="geometry" />
        </mxCell>
        <mxCell id="ky4P-q7fUcgdo2Km-gyk-22" value="" style="edgeStyle=orthogonalEdgeStyle;rounded=0;orthogonalLoop=1;jettySize=auto;html=1;" edge="1" parent="1" source="ky4P-q7fUcgdo2Km-gyk-16" target="ky4P-q7fUcgdo2Km-gyk-15">
          <mxGeometry relative="1" as="geometry" />
        </mxCell>
        <mxCell id="ky4P-q7fUcgdo2Km-gyk-16" value="Switch Turns" style="shape=process;whiteSpace=wrap;html=1;backgroundOutline=1;rounded=0;" vertex="1" parent="1">
          <mxGeometry x="600" y="190" width="120" height="60" as="geometry" />
        </mxCell>
        <mxCell id="ky4P-q7fUcgdo2Km-gyk-24" value="" style="edgeStyle=orthogonalEdgeStyle;rounded=0;orthogonalLoop=1;jettySize=auto;html=1;" edge="1" parent="1" source="ky4P-q7fUcgdo2Km-gyk-18" target="ky4P-q7fUcgdo2Km-gyk-19">
          <mxGeometry relative="1" as="geometry" />
        </mxCell>
        <mxCell id="ky4P-q7fUcgdo2Km-gyk-18" value="For each of these moves, see if they attack your king " style="rounded=0;whiteSpace=wrap;html=1;" vertex="1" parent="1">
          <mxGeometry x="600" y="380" width="120" height="60" as="geometry" />
        </mxCell>
        <mxCell id="ky4P-q7fUcgdo2Km-gyk-34" value="" style="edgeStyle=orthogonalEdgeStyle;rounded=0;orthogonalLoop=1;jettySize=auto;html=1;" edge="1" parent="1" source="ky4P-q7fUcgdo2Km-gyk-19" target="ky4P-q7fUcgdo2Km-gyk-33">
          <mxGeometry relative="1" as="geometry" />
        </mxCell>
        <mxCell id="ky4P-q7fUcgdo2Km-gyk-19" value="If they do attack your king, remove it from valid moves " style="rounded=0;whiteSpace=wrap;html=1;" vertex="1" parent="1">
          <mxGeometry x="600" y="470" width="120" height="60" as="geometry" />
        </mxCell>
        <mxCell id="ky4P-q7fUcgdo2Km-gyk-29" value="Update king position" style="rounded=0;whiteSpace=wrap;html=1;" vertex="1" parent="1">
          <mxGeometry x="-160" y="320" width="120" height="60" as="geometry" />
        </mxCell>
        <mxCell id="ky4P-q7fUcgdo2Km-gyk-38" value="" style="edgeStyle=orthogonalEdgeStyle;rounded=0;orthogonalLoop=1;jettySize=auto;html=1;" edge="1" parent="1" source="ky4P-q7fUcgdo2Km-gyk-32" target="ky4P-q7fUcgdo2Km-gyk-35">
          <mxGeometry relative="1" as="geometry" />
        </mxCell>
        <mxCell id="ky4P-q7fUcgdo2Km-gyk-40" value="" style="edgeStyle=orthogonalEdgeStyle;rounded=0;orthogonalLoop=1;jettySize=auto;html=1;" edge="1" parent="1" source="ky4P-q7fUcgdo2Km-gyk-32" target="ky4P-q7fUcgdo2Km-gyk-39">
          <mxGeometry relative="1" as="geometry" />
        </mxCell>
        <mxCell id="ky4P-q7fUcgdo2Km-gyk-32" value="Check if king is in check " style="shape=process;whiteSpace=wrap;html=1;backgroundOutline=1;" vertex="1" parent="1">
          <mxGeometry x="-110" y="430" width="120" height="60" as="geometry" />
        </mxCell>
        <mxCell id="ky4P-q7fUcgdo2Km-gyk-33" value="Return valid moves " style="rounded=0;whiteSpace=wrap;html=1;" vertex="1" parent="1">
          <mxGeometry x="600" y="570" width="120" height="60" as="geometry" />
        </mxCell>
        <mxCell id="ky4P-q7fUcgdo2Km-gyk-35" value="If king is in check and there are no more valid moves, its checkmate" style="rounded=0;whiteSpace=wrap;html=1;" vertex="1" parent="1">
          <mxGeometry x="-115" y="540" width="130" height="70" as="geometry" />
        </mxCell>
        <mxCell id="ky4P-q7fUcgdo2Km-gyk-39" value="If king is not in check and there are no more valid moves, its stalemate" style="rounded=1;whiteSpace=wrap;html=1;" vertex="1" parent="1">
          <mxGeometry x="-320" y="420" width="130" height="80" as="geometry" />
        </mxCell>
        <mxCell id="ky4P-q7fUcgdo2Km-gyk-41" value="How valid moves are calculated " style="text;html=1;strokeColor=none;fillColor=none;align=center;verticalAlign=middle;whiteSpace=wrap;rounded=0;" vertex="1" parent="1">
          <mxGeometry x="610" y="-60" width="100" height="70" as="geometry" />
        </mxCell>
        <mxCell id="ky4P-q7fUcgdo2Km-gyk-42" value="Update end row and column of the piece moved " style="rounded=0;whiteSpace=wrap;html=1;" vertex="1" parent="1">
          <mxGeometry x="180" y="530" width="120" height="60" as="geometry" />
        </mxCell>
        <mxCell id="ky4P-q7fUcgdo2Km-gyk-49" style="edgeStyle=orthogonalEdgeStyle;rounded=0;orthogonalLoop=1;jettySize=auto;html=1;exitX=1;exitY=0;exitDx=0;exitDy=0;entryX=1;entryY=0;entryDx=0;entryDy=0;" edge="1" parent="1" source="ky4P-q7fUcgdo2Km-gyk-44" target="ky4P-q7fUcgdo2Km-gyk-3">
          <mxGeometry relative="1" as="geometry">
            <Array as="points">
              <mxPoint x="470" y="370" />
              <mxPoint x="490" y="370" />
              <mxPoint x="490" y="210" />
              <mxPoint x="265" y="210" />
            </Array>
          </mxGeometry>
        </mxCell>
        <mxCell id="ky4P-q7fUcgdo2Km-gyk-44" value="Switch Turns " style="shape=process;whiteSpace=wrap;html=1;backgroundOutline=1;" vertex="1" parent="1">
          <mxGeometry x="350" y="340" width="120" height="60" as="geometry" />
        </mxCell>
        <mxCell id="ky4P-q7fUcgdo2Km-gyk-46" value="Main driver program" style="text;html=1;strokeColor=none;fillColor=none;align=center;verticalAlign=middle;whiteSpace=wrap;rounded=0;" vertex="1" parent="1">
          <mxGeometry x="200" y="-50" width="80" height="40" as="geometry" />
        </mxCell>
        <mxCell id="ky4P-q7fUcgdo2Km-gyk-52" value="Includes captures , promotions checks etc" style="text;html=1;strokeColor=none;fillColor=none;align=center;verticalAlign=middle;whiteSpace=wrap;rounded=0;" vertex="1" parent="1">
          <mxGeometry x="420" y="32.5" width="140" height="35" as="geometry" />
        </mxCell>
        <mxCell id="ky4P-q7fUcgdo2Km-gyk-61" value="" style="edgeStyle=orthogonalEdgeStyle;rounded=0;orthogonalLoop=1;jettySize=auto;html=1;" edge="1" parent="1" source="ky4P-q7fUcgdo2Km-gyk-54" target="ky4P-q7fUcgdo2Km-gyk-59">
          <mxGeometry relative="1" as="geometry" />
        </mxCell>
        <mxCell id="ky4P-q7fUcgdo2Km-gyk-54" value="" style="rounded=0;whiteSpace=wrap;html=1;" vertex="1" parent="1">
          <mxGeometry x="-280" y="-10" width="90" height="40" as="geometry" />
        </mxCell>
        <mxCell id="ky4P-q7fUcgdo2Km-gyk-62" value="" style="edgeStyle=orthogonalEdgeStyle;rounded=0;orthogonalLoop=1;jettySize=auto;html=1;" edge="1" parent="1" source="ky4P-q7fUcgdo2Km-gyk-55" target="ky4P-q7fUcgdo2Km-gyk-57">
          <mxGeometry relative="1" as="geometry" />
        </mxCell>
        <mxCell id="ky4P-q7fUcgdo2Km-gyk-55" value="" style="rounded=1;whiteSpace=wrap;html=1;" vertex="1" parent="1">
          <mxGeometry x="-280" y="70" width="90" height="40" as="geometry" />
        </mxCell>
        <mxCell id="ky4P-q7fUcgdo2Km-gyk-63" style="edgeStyle=orthogonalEdgeStyle;rounded=0;orthogonalLoop=1;jettySize=auto;html=1;exitX=1;exitY=0.5;exitDx=0;exitDy=0;entryX=0;entryY=0.5;entryDx=0;entryDy=0;" edge="1" parent="1" source="ky4P-q7fUcgdo2Km-gyk-56" target="ky4P-q7fUcgdo2Km-gyk-58">
          <mxGeometry relative="1" as="geometry" />
        </mxCell>
        <mxCell id="ky4P-q7fUcgdo2Km-gyk-56" value="" style="rhombus;whiteSpace=wrap;html=1;" vertex="1" parent="1">
          <mxGeometry x="-80" y="-10" width="60" height="60" as="geometry" />
        </mxCell>
        <mxCell id="ky4P-q7fUcgdo2Km-gyk-57" value="Alternate option" style="text;html=1;strokeColor=none;fillColor=none;align=center;verticalAlign=middle;whiteSpace=wrap;rounded=0;" vertex="1" parent="1">
          <mxGeometry x="-160" y="75" width="60" height="30" as="geometry" />
        </mxCell>
        <mxCell id="ky4P-q7fUcgdo2Km-gyk-58" value="Decision" style="text;html=1;strokeColor=none;fillColor=none;align=center;verticalAlign=middle;whiteSpace=wrap;rounded=0;" vertex="1" parent="1">
          <mxGeometry y="5" width="60" height="30" as="geometry" />
        </mxCell>
        <mxCell id="ky4P-q7fUcgdo2Km-gyk-59" value="Process" style="text;html=1;strokeColor=none;fillColor=none;align=center;verticalAlign=middle;whiteSpace=wrap;rounded=0;" vertex="1" parent="1">
          <mxGeometry x="-160" y="-5" width="60" height="30" as="geometry" />
        </mxCell>
        <mxCell id="ky4P-q7fUcgdo2Km-gyk-66" style="edgeStyle=orthogonalEdgeStyle;rounded=0;orthogonalLoop=1;jettySize=auto;html=1;exitX=1;exitY=0.5;exitDx=0;exitDy=0;" edge="1" parent="1" source="ky4P-q7fUcgdo2Km-gyk-64" target="ky4P-q7fUcgdo2Km-gyk-65">
          <mxGeometry relative="1" as="geometry" />
        </mxCell>
        <mxCell id="ky4P-q7fUcgdo2Km-gyk-64" value="" style="shape=parallelogram;perimeter=parallelogramPerimeter;whiteSpace=wrap;html=1;fixedSize=1;" vertex="1" parent="1">
          <mxGeometry x="-95" y="70" width="95" height="40" as="geometry" />
        </mxCell>
        <mxCell id="ky4P-q7fUcgdo2Km-gyk-65" value="Data" style="text;html=1;strokeColor=none;fillColor=none;align=center;verticalAlign=middle;whiteSpace=wrap;rounded=0;" vertex="1" parent="1">
          <mxGeometry x="20" y="75" width="60" height="30" as="geometry" />
        </mxCell>
        <mxCell id="ky4P-q7fUcgdo2Km-gyk-70" value="" style="edgeStyle=orthogonalEdgeStyle;rounded=0;orthogonalLoop=1;jettySize=auto;html=1;" edge="1" parent="1" source="ky4P-q7fUcgdo2Km-gyk-68" target="ky4P-q7fUcgdo2Km-gyk-42">
          <mxGeometry relative="1" as="geometry" />
        </mxCell>
        <mxCell id="ky4P-q7fUcgdo2Km-gyk-68" value="Any piece except king is moved " style="rounded=0;whiteSpace=wrap;html=1;" vertex="1" parent="1">
          <mxGeometry x="180" y="440" width="120" height="60" as="geometry" />
        </mxCell>
      </root>
    </mxGraphModel>
  </diagram>
</mxfile>
